<svg data-v-fde0c5aa="" xmlns="http://www.w3.org/2000/svg" viewBox="0 0 300 300" class="font"><!----><defs data-v-fde0c5aa=""><!----></defs><rect data-v-fde0c5aa="" fill="#825FEB" x="0" y="0" width="300px" height="300px" class="logo-background-square"></rect><defs data-v-fde0c5aa=""><!----></defs><g data-v-fde0c5aa="" id="5c028d7a-3073-4007-8951-12bb412acb9e" fill="#F8BAED" transform="matrix(1.9259388446807861,0,0,1.9259388446807861,39.51851529034678,130.7213527030317)"><path d="M7.32 3.79L7.32 4.38C7.32 4.52 7.39 4.62 7.53 4.65C7.62 4.68 7.88 4.73 8.33 4.82L5.80 11.19C5.68 11.44 5.59 11.82 5.47 12.29C5.35 11.79 5.24 11.42 5.14 11.20L2.58 4.83C2.88 4.77 3.12 4.70 3.30 4.68C3.49 4.65 3.58 4.55 3.58 4.41L3.58 3.79L0.25 3.79L0.25 4.41C0.25 4.55 0.32 4.63 0.46 4.66C0.55 4.69 0.78 4.75 1.18 4.83L4.84 13.85L6.06 13.85L9.74 4.83L10.44 4.66C10.58 4.63 10.64 4.55 10.64 4.41L10.64 3.81ZM16.14 12.95C16.06 12.92 15.64 12.84 15.44 12.80L15.44 9.25C15.44 8.86 15.40 8.50 15.29 8.16C15.18 7.83 15.02 7.55 14.81 7.32C14.60 7.10 14.35 6.93 14.04 6.79C13.73 6.65 13.37 6.59 12.98 6.59C12.42 6.59 11.91 6.68 11.47 6.87C11.02 7.07 10.60 7.34 10.21 7.71L10.43 8.11C10.46 8.16 10.51 8.23 10.57 8.27C10.63 8.32 10.71 8.33 10.79 8.33C10.91 8.33 11.00 8.30 11.12 8.22C11.23 8.13 11.37 8.06 11.52 7.97C11.68 7.87 11.84 7.80 12.05 7.71C12.26 7.63 12.52 7.59 12.82 7.59C13.29 7.59 13.64 7.74 13.87 8.02C14.11 8.30 14.24 8.72 14.24 9.28L14.24 9.83C13.43 9.83 12.75 9.88 12.19 10.01C11.63 10.14 11.19 10.32 10.85 10.51C10.51 10.71 10.25 10.96 10.09 11.21C9.94 11.47 9.87 11.75 9.87 12.03C9.87 12.35 9.91 12.63 10.02 12.87C10.14 13.10 10.28 13.30 10.44 13.45C10.61 13.61 10.84 13.71 11.07 13.79C11.31 13.87 11.55 13.92 11.83 13.92C12.11 13.92 12.36 13.90 12.59 13.85C12.81 13.79 13.01 13.72 13.20 13.64C13.40 13.55 13.59 13.44 13.76 13.30C13.93 13.16 14.13 13.01 14.32 12.84L14.46 13.51C14.49 13.62 14.52 13.71 14.60 13.73C14.69 13.76 14.78 13.79 14.90 13.79L15.34 13.79L15.44 13.79L16.35 13.79L16.35 13.19C16.35 13.06 16.27 12.95 16.14 12.92ZM14.21 12.08C14.07 12.22 13.93 12.36 13.79 12.47C13.65 12.59 13.50 12.70 13.33 12.78C13.16 12.87 12.99 12.92 12.81 12.96C12.63 13.01 12.45 13.03 12.22 13.03C12.05 13.03 11.90 13.01 11.76 12.96C11.62 12.92 11.51 12.87 11.40 12.78C11.28 12.70 11.20 12.59 11.14 12.45C11.09 12.31 11.05 12.17 11.05 11.97C11.05 11.77 11.10 11.61 11.21 11.44C11.33 11.27 11.52 11.13 11.77 11.02C12.03 10.91 12.36 10.79 12.75 10.72C13.15 10.65 13.64 10.63 14.21 10.63ZM19.11 7.83L19.01 6.99C18.96 6.82 18.84 6.73 18.68 6.73L17.92 6.73L16.91 6.73L16.91 7.32C16.91 7.46 17.00 7.56 17.14 7.59C17.22 7.62 17.47 7.67 17.92 7.76L17.92 15.20L17.14 15.36C17.00 15.39 16.91 15.48 16.91 15.62L16.91 16.23L20.19 16.23L20.19 15.62C20.19 15.48 20.10 15.39 19.96 15.36C19.94 15.36 19.80 15.33 19.56 15.27C19.32 15.22 19.19 15.19 19.18 15.19L19.18 13.09C19.68 13.65 20.36 13.92 21.22 13.92C22.09 13.92 22.82 13.55 23.38 12.85C23.91 12.18 24.19 11.30 24.19 10.23C24.19 9.07 23.94 8.16 23.46 7.52C22.99 6.90 22.34 6.59 21.50 6.59C20.58 6.59 19.80 7.01 19.12 7.83ZM19.18 12.11L19.18 8.68C19.71 7.97 20.36 7.60 21.08 7.60C22.29 7.60 22.90 8.50 22.90 10.23C22.90 11.10 22.74 11.77 22.37 12.25C22.01 12.73 21.48 12.95 20.80 12.95C20.13 12.95 19.60 12.67 19.18 12.11ZM28.55 6.62C28.03 6.62 27.57 6.71 27.15 6.87C26.73 7.04 26.36 7.29 26.07 7.60C25.77 7.91 25.55 8.30 25.38 8.75C25.21 9.20 25.16 9.70 25.16 10.26C25.16 10.82 25.21 11.33 25.38 11.77C25.55 12.22 25.77 12.61 26.07 12.92C26.36 13.23 26.73 13.48 27.15 13.65C27.57 13.82 28.03 13.90 28.55 13.90C29.06 13.90 29.53 13.82 29.95 13.65C30.37 13.48 30.73 13.23 31.02 12.92C31.32 12.61 31.54 12.22 31.70 11.77C31.85 11.33 31.93 10.82 31.93 10.26C31.93 9.70 31.85 9.20 31.70 8.75C31.54 8.30 31.32 7.91 31.02 7.60C30.73 7.29 30.37 7.04 29.95 6.87C29.53 6.71 29.06 6.62 28.55 6.62ZM28.55 12.95C28.18 12.95 27.87 12.87 27.62 12.75C27.37 12.64 27.15 12.47 26.98 12.25C26.81 12.03 26.67 11.75 26.59 11.41C26.50 11.07 26.45 10.71 26.45 10.29C26.45 9.87 26.50 9.48 26.59 9.14C26.67 8.81 26.81 8.53 26.98 8.30C27.15 8.08 27.37 7.88 27.62 7.77C27.87 7.66 28.18 7.60 28.55 7.60C29.25 7.60 29.78 7.83 30.11 8.30C30.45 8.78 30.63 9.44 30.63 10.28C30.63 11.12 30.45 11.77 30.11 12.25C29.78 12.73 29.25 12.95 28.55 12.95ZM34.90 8.18L34.82 7.07C34.79 6.94 34.76 6.86 34.71 6.80C34.65 6.75 34.58 6.73 34.44 6.73L33.73 6.73L32.72 6.73L32.72 7.32C32.72 7.46 32.79 7.56 32.93 7.59C33.01 7.62 33.28 7.67 33.73 7.76L33.73 12.81L32.93 12.96C32.79 12.99 32.72 13.09 32.72 13.23L32.72 13.82L35.98 13.82L35.98 13.23C35.98 13.09 35.91 12.99 35.77 12.96C35.35 12.88 35.08 12.84 34.97 12.81L34.97 9.31C35.36 8.33 35.98 7.83 36.79 7.83C37.04 7.83 37.23 7.85 37.37 7.90C37.51 7.94 37.62 7.97 37.70 7.97C37.79 7.97 37.86 7.90 37.88 7.78L38.04 6.85C37.76 6.68 37.44 6.59 37.07 6.59C36.15 6.59 35.43 7.13 34.92 8.18ZM41.78 3.79L41.78 4.38C41.78 4.52 41.85 4.62 41.99 4.65C42.07 4.68 42.34 4.73 42.78 4.82L42.78 12.81L41.99 12.96C41.85 12.99 41.78 13.09 41.78 13.23L41.78 13.82L48.97 13.82L48.97 11.49L48.30 11.49C48.13 11.49 48.02 11.55 47.99 11.72C47.99 11.76 47.96 12.11 47.91 12.73L44.16 12.73L44.16 9.30L47.85 9.30L47.85 8.23L44.16 8.23L44.16 4.90L47.91 4.90C47.96 5.57 48.01 5.94 48.01 5.98C48.03 6.15 48.13 6.22 48.30 6.22L48.97 6.22L48.97 3.79ZM55.57 12.82L55.23 12.36C55.17 12.28 55.10 12.25 55.01 12.25C54.91 12.25 54.81 12.28 54.73 12.36C54.28 12.75 53.76 12.95 53.17 12.95C52.53 12.95 52.04 12.71 51.67 12.25C51.31 11.77 51.11 11.10 51.11 10.26C51.11 9.42 51.28 8.78 51.65 8.30C51.83 8.08 52.05 7.90 52.30 7.78C52.56 7.67 52.82 7.60 53.07 7.60C53.33 7.60 53.58 7.62 53.86 7.66C53.97 7.69 54.14 7.71 54.36 7.78C54.36 7.80 54.38 7.94 54.40 8.25C54.43 8.55 54.45 8.72 54.46 8.78C54.49 8.92 54.56 8.97 54.70 8.97L55.26 8.97L55.26 7.13C54.39 6.79 53.69 6.62 53.16 6.62C52.11 6.62 51.27 6.96 50.67 7.64C50.09 8.32 49.81 9.17 49.81 10.26C49.81 11.38 50.12 12.28 50.72 12.95C51.30 13.59 52.02 13.92 52.93 13.92C54.08 13.92 54.98 13.55 55.57 12.82ZM59.91 6.62C59.39 6.62 58.93 6.71 58.51 6.87C58.09 7.04 57.72 7.29 57.43 7.60C57.13 7.91 56.91 8.30 56.74 8.75C56.57 9.20 56.52 9.70 56.52 10.26C56.52 10.82 56.57 11.33 56.74 11.77C56.91 12.22 57.13 12.61 57.43 12.92C57.72 13.23 58.09 13.48 58.51 13.65C58.93 13.82 59.39 13.90 59.91 13.90C60.42 13.90 60.89 13.82 61.31 13.65C61.73 13.48 62.09 13.23 62.38 12.92C62.68 12.61 62.90 12.22 63.06 11.77C63.21 11.33 63.29 10.82 63.29 10.26C63.29 9.70 63.21 9.20 63.06 8.75C62.90 8.30 62.68 7.91 62.38 7.60C62.09 7.29 61.73 7.04 61.31 6.87C60.89 6.71 60.42 6.62 59.91 6.62ZM59.91 12.95C59.54 12.95 59.23 12.87 58.98 12.75C58.73 12.64 58.51 12.47 58.34 12.25C58.17 12.03 58.03 11.75 57.95 11.41C57.86 11.07 57.81 10.71 57.81 10.29C57.81 9.87 57.86 9.48 57.95 9.14C58.03 8.81 58.17 8.53 58.34 8.30C58.51 8.08 58.73 7.88 58.98 7.77C59.23 7.66 59.54 7.60 59.91 7.60C60.61 7.60 61.14 7.83 61.47 8.30C61.81 8.78 61.99 9.44 61.99 10.28C61.99 11.12 61.81 11.77 61.47 12.25C61.14 12.73 60.61 12.95 59.91 12.95ZM66.25 7.71L66.15 6.99C66.09 6.82 65.98 6.73 65.81 6.73L65.09 6.73L64.08 6.73L64.08 7.32C64.08 7.46 64.13 7.56 64.27 7.59C64.36 7.62 64.64 7.67 65.09 7.76L65.09 12.81L64.27 12.96C64.13 12.99 64.08 13.09 64.08 13.23L64.08 13.82L67.34 13.82L67.34 13.23C67.34 13.09 67.27 12.99 67.13 12.96C67.10 12.96 66.96 12.94 66.71 12.88L66.33 12.81L66.33 8.55C66.81 7.94 67.33 7.63 67.91 7.63C68.81 7.63 69.26 8.19 69.26 9.31L69.26 13.83L71.51 13.83L71.51 13.23C71.51 13.09 71.44 13.01 71.30 12.98C70.85 12.89 70.59 12.82 70.50 12.81L70.50 9.31C70.50 8.78 70.66 8.36 70.97 8.05C71.25 7.77 71.61 7.63 72.03 7.63C72.49 7.63 72.84 7.78 73.09 8.06C73.35 8.34 73.46 8.76 73.46 9.32L73.46 13.85L75.71 13.85L75.71 13.23C75.71 13.09 75.64 13.01 75.50 12.98C75.42 12.95 75.14 12.89 74.69 12.81L74.69 9.31C74.69 8.46 74.49 7.80 74.07 7.32C73.88 7.10 73.61 6.92 73.32 6.80C73.02 6.69 72.66 6.62 72.23 6.62C71.79 6.62 71.39 6.76 70.99 6.99C70.56 7.24 70.27 7.62 70.07 8.11C69.93 7.66 69.72 7.29 69.43 7.03C69.13 6.76 68.73 6.62 68.25 6.62C67.51 6.62 66.84 7.00 66.25 7.73ZM78.71 7.71L78.61 6.99C78.55 6.82 78.44 6.73 78.27 6.73L77.55 6.73L76.54 6.73L76.54 7.32C76.54 7.46 76.59 7.56 76.73 7.59C76.82 7.62 77.10 7.67 77.55 7.76L77.55 12.81L76.73 12.96C76.59 12.99 76.54 13.09 76.54 13.23L76.54 13.82L79.80 13.82L79.80 13.23C79.80 13.09 79.73 12.99 79.59 12.96C79.56 12.96 79.42 12.94 79.17 12.88L78.79 12.81L78.79 8.55C79.27 7.94 79.79 7.63 80.37 7.63C81.27 7.63 81.72 8.19 81.72 9.31L81.72 13.83L83.97 13.83L83.97 13.23C83.97 13.09 83.90 13.01 83.76 12.98C83.31 12.89 83.05 12.82 82.96 12.81L82.96 9.31C82.96 8.78 83.12 8.36 83.43 8.05C83.71 7.77 84.07 7.63 84.49 7.63C84.95 7.63 85.30 7.78 85.55 8.06C85.81 8.34 85.92 8.76 85.92 9.32L85.92 13.85L88.17 13.85L88.17 13.23C88.17 13.09 88.10 13.01 87.96 12.98C87.88 12.95 87.60 12.89 87.15 12.81L87.15 9.31C87.15 8.46 86.95 7.80 86.53 7.32C86.34 7.10 86.07 6.92 85.78 6.80C85.48 6.69 85.12 6.62 84.69 6.62C84.25 6.62 83.85 6.76 83.45 6.99C83.02 7.24 82.73 7.62 82.53 8.11C82.39 7.66 82.18 7.29 81.89 7.03C81.59 6.76 81.19 6.62 80.71 6.62C79.97 6.62 79.30 7.00 78.71 7.73ZM92.13 6.62C91.63 6.62 91.17 6.71 90.75 6.89C90.33 7.07 89.98 7.32 89.70 7.63C89.42 7.94 89.19 8.33 89.04 8.75C88.89 9.17 88.80 9.62 88.80 10.12C88.80 10.74 88.89 11.27 89.05 11.75C89.22 12.22 89.45 12.61 89.75 12.94C90.06 13.26 90.41 13.51 90.83 13.68C91.25 13.85 91.70 13.93 92.19 13.93C92.44 13.93 92.71 13.90 92.96 13.86C93.21 13.82 93.46 13.75 93.72 13.66C93.97 13.58 94.18 13.45 94.40 13.31C94.63 13.17 94.81 13.03 94.96 12.84L94.61 12.38C94.56 12.29 94.49 12.25 94.37 12.25C94.29 12.25 94.21 12.29 94.09 12.36C93.98 12.43 93.84 12.50 93.67 12.59C93.51 12.67 93.31 12.75 93.09 12.82C92.86 12.89 92.58 12.92 92.27 12.92C91.94 12.92 91.66 12.87 91.38 12.75C91.10 12.64 90.87 12.47 90.68 12.25C90.48 12.03 90.31 11.77 90.20 11.44C90.09 11.10 90.03 10.71 90.03 10.26L94.74 10.26C94.85 10.26 94.95 10.22 94.99 10.16C95.03 10.11 95.05 9.97 95.05 9.77C95.05 9.27 94.96 8.82 94.82 8.43C94.68 8.04 94.46 7.70 94.21 7.43C93.95 7.17 93.65 6.97 93.28 6.83C92.92 6.69 92.53 6.62 92.11 6.62ZM92.13 7.55C92.41 7.55 92.68 7.59 92.90 7.69C93.13 7.78 93.32 7.92 93.48 8.09C93.63 8.26 93.73 8.48 93.81 8.72C93.90 8.96 93.94 9.23 93.94 9.51L90.09 9.51C90.17 8.89 90.40 8.40 90.73 8.05C91.07 7.70 91.55 7.53 92.15 7.53ZM98.07 8.18L97.99 7.07C97.96 6.94 97.93 6.86 97.87 6.80C97.82 6.75 97.75 6.73 97.61 6.73L96.89 6.73L95.89 6.73L95.89 7.32C95.89 7.46 95.96 7.56 96.10 7.59C96.18 7.62 96.45 7.67 96.89 7.76L96.89 12.81L96.10 12.96C95.96 12.99 95.89 13.09 95.89 13.23L95.89 13.82L99.15 13.82L99.15 13.23C99.15 13.09 99.08 12.99 98.94 12.96C98.52 12.88 98.25 12.84 98.14 12.81L98.14 9.31C98.53 8.33 99.15 7.83 99.96 7.83C100.21 7.83 100.39 7.85 100.53 7.90C100.67 7.94 100.79 7.97 100.87 7.97C100.95 7.97 101.02 7.90 101.05 7.78L101.21 6.85C100.93 6.68 100.60 6.59 100.24 6.59C99.32 6.59 98.60 7.13 98.08 8.18ZM107.31 12.82L106.97 12.36C106.92 12.28 106.85 12.25 106.75 12.25C106.65 12.25 106.55 12.28 106.47 12.36C106.02 12.75 105.50 12.95 104.92 12.95C104.27 12.95 103.78 12.71 103.42 12.25C103.05 11.77 102.86 11.10 102.86 10.26C102.86 9.42 103.03 8.78 103.39 8.30C103.57 8.08 103.80 7.90 104.05 7.78C104.30 7.67 104.57 7.60 104.82 7.60C105.07 7.60 105.32 7.62 105.60 7.66C105.71 7.69 105.88 7.71 106.11 7.78C106.11 7.80 106.12 7.94 106.15 8.25C106.18 8.55 106.19 8.72 106.20 8.78C106.23 8.92 106.30 8.97 106.44 8.97L107.00 8.97L107.00 7.13C106.13 6.79 105.43 6.62 104.90 6.62C103.85 6.62 103.01 6.96 102.41 7.64C101.84 8.32 101.56 9.17 101.56 10.26C101.56 11.38 101.86 12.28 102.47 12.95C103.04 13.59 103.77 13.92 104.68 13.92C105.83 13.92 106.72 13.55 107.31 12.82ZM111.57 6.62C111.06 6.62 110.60 6.71 110.18 6.89C109.76 7.07 109.41 7.32 109.13 7.63C108.85 7.94 108.63 8.33 108.47 8.75C108.32 9.17 108.23 9.62 108.23 10.12C108.23 10.74 108.32 11.27 108.49 11.75C108.65 12.22 108.88 12.61 109.19 12.94C109.49 13.26 109.84 13.51 110.26 13.68C110.68 13.85 111.13 13.93 111.62 13.93C111.87 13.93 112.14 13.90 112.39 13.86C112.64 13.82 112.90 13.75 113.15 13.66C113.40 13.58 113.61 13.45 113.83 13.31C114.06 13.17 114.24 13.03 114.39 12.84L114.04 12.38C113.99 12.29 113.92 12.25 113.81 12.25C113.72 12.25 113.64 12.29 113.53 12.36C113.41 12.43 113.27 12.50 113.11 12.59C112.94 12.67 112.74 12.75 112.52 12.82C112.29 12.89 112.01 12.92 111.71 12.92C111.37 12.92 111.09 12.87 110.81 12.75C110.53 12.64 110.31 12.47 110.11 12.25C109.91 12.03 109.75 11.77 109.63 11.44C109.52 11.10 109.47 10.71 109.47 10.26L114.17 10.26C114.28 10.26 114.38 10.22 114.42 10.16C114.46 10.11 114.48 9.97 114.48 9.77C114.48 9.27 114.39 8.82 114.25 8.43C114.11 8.04 113.89 7.70 113.64 7.43C113.39 7.17 113.08 6.97 112.71 6.83C112.35 6.69 111.96 6.62 111.54 6.62ZM111.57 7.55C111.85 7.55 112.11 7.59 112.34 7.69C112.56 7.78 112.76 7.92 112.91 8.09C113.06 8.26 113.16 8.48 113.25 8.72C113.33 8.96 113.37 9.23 113.37 9.51L109.52 9.51C109.61 8.89 109.83 8.40 110.17 8.05C110.50 7.70 110.98 7.53 111.58 7.53Z"></path></g><!----><!----></svg>